<svg xmlns="http://www.w3.org/2000/svg" xmlns:xlink="http://www.w3.org/1999/xlink" viewBox="0 0 7656 3888">
  <g id="carpet" class="g_to_style" style="isolation: isolate">
    <path d="M7514,2843c-5.53-9-17.15-42.29-28-46-.76-45.91-2.23-88.43-44-101-8.55-27.95-2.52-40.09-35-45-37.9-82.86-291.83-284.54-381-322-45.75-19.22-97.25-24.45-142-41-23.15-8.56-51.41-60.06-84-23-7.27-.59-21.81-3.08-41.35-6.57-7.14,7-18.76,12.06-24.75,19.55-144.7-1.16-316.1-1.32-512-.77,16.54,101.34,32.63,277.29,47,404.77-2.08-3.89-6.33,11-10,15-25.74-10.48-40.44,6-59,18-10.43-9.65-34.56-44.78-31.29-30.95-44.3-187.57-71-255.27-98.83-406.29C5025,2282.13,3377.13,2302.25,1408.9,2300c-29.78,135.22-93.35,397.49-94,403-1.12,9.54-36.11-1.58-52,18-1.93,2.38-30.21-3.89-50-8,5.88-140.16,37.23-370.41,43.09-407l-2.09,0c-26.51-2.61-63.3,3.09-93,1-175.2-10.61-356.48,3.88-403-6-7.81-1.66-16.21-29.4-24.33-84q-26.36,2.51-51.57,5c-33.36,11-65,25.8-81,52-6.52,10.69,5.28,18.05-7,25-16.66,9.43-36.84,4.53-48,10l-48,39c-62.1,39.75-129.64,61.45-187,102q.5,16,1,32l-27,4-68,73c-36.61,45.11-69.87,116.13-89,175-74,227.82,98.55,413.13,203,503,199.71,171.82,412.58,238.38,699,327-145.22-44.93,364,91.12,674,104h80c132.19,8.62,359.58,29.46,540,34,79.32,2,184.81,20.26,260,26s315.07,13.66,342-17c16.24.09,30,21.33,60,13,14.47-4,76.43-21.94,90-20l50,20c19.42,4.19,21.85-17,33-14,10.05,2.71,9.58,18.76,27,16,81.75-13,209.63-16.22,290,2l246-13,238,21,278-10c13.26-2.11,48-20.74,51-20,9.89,2.46,186.24,28.57,217,18,10.73-3.69,71.71-16.24,92-12,35.47,7.42,82.36-3,116,2,161.83,23.92,347.34,8.77,498-16l142,6,150-6c22.54,4.64,42.24,19.88,69,24,66.72-28.92,132.51-.17,191-14l68-20,78-2,106-28,116-4,88-51c38.42-12.83,84.78-5.61,124-17l129-50,63,1c83.64-15.86,170.24-55.9,235-95,26.69,15.71,50.84-6.41,68-18,24.75,13.15,48.94-18,73-22,190.38-31.85,522.93-231.22,573-408,16.28-57.47,46.33-46,9-103C7496.55,2872.78,7503.64,2858.29,7514,2843Z"  />
  </g>
  <g id="feet" class="g_to_style"  style="isolation: isolate">
    <path d="M1409,2300c-29.77,135.21-93.35,397.5-94,403-1.12,9.55-36.12-1.58-52,18-1.94,2.39-30.22-3.89-50-8,6.39-152.33,42.86-411.09,44-412C1305.33,2299,1360.67,2302,1409,2300Z" />
    <path d="M6221,2271c16.9,100.23,33.36,280.88,48,411-2.09-3.89-6.33,11-10,15-25.74-10.47-40.44,6-59,18-10.43-9.65-34.56-44.78-31.29-30.95-44.77-189.54-71.53-256.65-99.71-411.05C6154.33,2276.67,6180.83,2274.33,6221,2271Z"  />
  </g>
  <g id="seat" class="g_to_style"  style="isolation: isolate">
    <path d="M1278.9,1553c-48.94,61.84-98.61,123.26-134,197-9.72,20.26-68.79,55.82-42,85,77.28,54.81,91.65,102.56,162,132,235.7,30.74,700,22.38,1213,34,284,6.43,908.71,9.8,1206-17-26.24,2.36,69.75-27.23,88-39,2.83-.17,27,24.62,246,29,262.52,5.24,949.29,1.25,1930,10,138.18,1.23,296.87-26,381-93,7-7.24,47.6-37.34,84.15-83.93,0,0,0,0-.05,0,0-1.59-.17-3.17-.36-4.75-14.19-40.09-45.54-66.2-67.74-98.27-38.82-56.09-67.52-110.44-110-161-12-14.36-38.8-36.94-59.6-59.18-9,9.91-18.21,17.92-27.4,23.18-16.79-10.43-40.48,1.24-58-5-48.52-17.3-105.66-32.78-158-48l-250-38-3,60c-16,30.42-129,3.15-163-4-115.63-24.37-224.81-53.84-332-86l-100-21q-2-7-4-14l-54-15-78-6-19,9c-4.77,3.6-152.6-30.29-159-36-10.8-9.65-48.42-35.23-31-61,5.77-8.53,5.84-29.08,3.85-54-353-.78-651.49-15.54-933.75,33,32.71-5.63-64.2,59.23-91,74-42.23-10.17-71-22.45-112-35,25.76-62-228.78-92.94-380-63-92.65-2.31-264,6.31-387.56,11.64,10.75,12.3,129.47,31.69,104.46,81.34-21.21,42.12-166.44,49.9-229,60-109.92,17.74-223.77,22.65-338,42l-242,52c-38.35,8.25-199.94,53.53-240,40-33.66-11.38-5.12-81.91-24-106l-76,19c-89.36,29.34-163.42,53-243,88-32.27,14.18-75.53,54.3-133,53-37.23-.85-43.19-35.65-86-45-1.35-.3-2.69-.63-4-1Z" />
  </g>
  <g id="cushions" class="g_to_style"  style="isolation: isolate">
    <path d="M6365.4,568c-39.73,8.9-76.62,27-110,34-42.95,9-167.15,21.88-257.91,20.73a30.34,30.34,0,0,1-10.65-1.86c-25.21-.47-60-6.12-92.94-16.87,12.58-75.69,30-112.44,26-144-91.53-18.32-243.61,20.57-345,36-10,1.52-50-28.05-51-18-.34,3.53,6.71,32.14-5,34-2.13.33-54.33,28.18-61,26-56.67-42.31-210.82-144.55-219.57-149.57.19.19.39.38.57.57-1.07-.78-1.22-.94-.57-.57C5197.52,347.65,5100.1,299.8,5093.9,312c-25.72,50.55-147.39,504.54-174,635-26.42,55.28-40,123.93-101,242-.78,1.51-34.1,32.94-61,36-3.08.35-6.79.67-11,1-.71,7-2.11,12.53-4.47,16-17.42,25.77,20.2,51.35,31,61,6.4,5.71,154.23,39.6,159,36l19-9,78,6,54,15q2,7,4,14l100,21c107.19,32.16,216.37,61.63,332,86,34,7.15,147,34.42,163,4l3-60,250,38c52.34,15.22,109.48,30.7,158,48,17.52,6.24,41.21-5.43,58,5,40.44-23.13,82-99.8,97-156,5.8-21.62-3.94-52.27,0-78,8-52.37-11.56-101.68,4-160,10.63-39.82-6.36-61,20-84l60-73c19.61-30,42.5-53,62-80,12.5-17.31,9.31-34.54,20-56l24-24q4-21,8-42l34-46,12-46c4.28-11.87,17-18.59,22-28q5.51-40,11-80C6505.08,527.22,6405.77,558.93,6365.4,568Z" />
    <path d="M2839,1205c.63-.47,1.22-1,1.84-1.44-37.23-188.93-70.9-349.82-95.94-417.58-10.71-165.43-32.2-253.27-45.05-340q-2.91-4-5.85-7.93a68.15,68.15,0,0,1,2.92-13.14c-10.85-84.13-5.59-125.78-49.21-168.1-.56-.22-1.11-.42-1.67-.62q-6.73,1.29-13.34,2.73c-20.17,16-41.83,5.36-62.7,20.13-1.4,1.62-8.31,3-18.29,4.23-84.62,32.35-169.93,84.92-311.81,155.75l-71,30-47,42c-29.05,10-67.52-18.45-106-13-85.57,12.1-165.3,35.13-248,32,.16-31.28-61.32-102-96-85-36.22,17.75-28.15,61.87-49,92-1.84,2.66-7.94,7.14-16.72,12.62C1568,575.23,1474.12,619.07,1452,616c-81.07-11.24-347.92-176.42-397-84-.33,1.33-.67,2.67-1,4-11.32,29.35,5.72,57.1,10,86q1,120,2,240c8.64,46.06,53.56,181.73,83,219,13,11.67,16,33.33,29,45,8.37,19-8.35,31.12-2,53,5.54,19.09,25,44.14,29,69v65c12.7,64.58,49,163,127,180,42.81,9.35,48.77,44.16,86,45,57.46,1.3,100.73-38.82,133-53,79.58-35,153.64-58.66,243-88l76-19c18.87,24.09-9.67,94.62,24,106,40,13.54,201.64-31.74,240-40l242-52c114.23-19.35,228.07-24.26,338-42,62.55-10.1,207.78-17.88,229-60C2970.63,1235.15,2822.82,1217.23,2839,1205Z"/>
  </g>
  <g id="frame" class="g_to_style"  style="isolation: isolate">
    <path d="M1077,894l96,151c36.2,53.79,57,47.67,65,75q1,22,2,44c5.8,18.86,20.18,39.16,24,64,5.81,37.75-1.8,75.71,7,114,4.9,21.35,57,150,57,150l-49,61c-48.94,61.84-98.62,123.26-134,197-9.72,20.26-68.8,55.83-42,85,77.27,54.81,91.65,102.57,162,132,235.69,30.74,700,22.38,1213,34,283.95,6.43,908.71,9.8,1206-17-26.25,2.37,69.75-27.23,88-39,2.83-.17,27,24.63,246,29,262.51,5.24,949.29,1.26,1930,10,138.17,1.23,296.86-26,381-93,7-7.29,48.23-37.8,85-85-13.52-42.22-46.12-69-69-102-38.82-56.08-67.53-110.43-110-161-19.95-23.75-80.12-70-87-100,12.35-24.34,44.8-66.17,27-114-8.33-17.66-2.67-12.34-11-30,2.1-37.78,29.7-53.77,34-89,6.31-51.77,6.18-109.41,26-152l8-4c71.75-44.13,89.35-123,149-170l5-4c12.81-3.54,87,54.72,101,63,107,63.41,207.38,147,307,220,7.88,308.42-28.87,782.2-33,1093-6.67,8.33-20.33,13.67-27,22-909.82-7.27-2875,25-5341,22-39.33-.05-96.14,5.73-139,6-26.51-2.61-63.31,3.09-93,1-175.2-10.61-356.48,3.89-403-6-28.3-6-64.23-353.85-67-1080C834.49,1091.36,912.73,1026.86,1077,894Z" />
  </g>
  <g id="back" class="g_to_style"  style="isolation: isolate">
    <path d="M1767.9,530c.16-31.28-61.32-102-96-85-36.22,17.75-28.15,61.87-49,92-9.75,14.09-138.71,79-154,75-23.25-76.24-34.31-315.21,16-359,74.6-64.92,119.26-12.09,263-18,234-9.63,655,37.77,726,35,30.63-1.2,103.74-10,128-13,57.9-7.19,152.86,8.26,191,7,271.91-9,460.14-15.08,881-24-23.86.5,39.61,26.56,72,18l40-19c75.7,5.34,411.87,34.67,526,40,103.69,4.83,247.73-10.2,329,8,34.67-6.67,96.34-16.34,131-23,77.55-12.93,178,18.22,245,11,103-11.11,253.46-17.59,505-38,36.67-1.34,107.34-9.67,144-11,69.57-11.37,271.55-15.06,287,3,82,95.84,93.15,47.3,69,225,11.24,106.19,13.34,72.66-16,166-24.15,3.22-69.61-2.17-112-16,12.58-75.69,30-112.44,26-144-91.53-18.32-243.61,20.57-345,36-10,1.52-50-28.05-51-18-.34,3.53,6.71,32.14-5,34-2.13.33-54.33,28.18-61,26-60.91-45.47-234.39-160.16-219-149-40.47-40.89-138.77-89.24-145-77-25.72,50.55-147.39,504.54-174,635-26.42,55.28-40,123.93-101,242-.78,1.51-34.1,32.94-61,36-42.58,4.83-203.82,5-271,5-219.89,0-437.33-1-629,32l-85,26c-16.27,10.28-46.75,25.09-71,29-37.66-20-58.33-37-96-57,71.19,1.16-291.56-25-532-32-101.05-3-230.18-9.76-232-19-37.64-191.27-71.72-354.6-97-423-11.22-173.23-34.25-261.39-46.81-352.33C2685.58,343,2692.92,300,2646.9,256c-125,23.62-213.29,86.29-407,183l-71,30-47,42c-29.05,10-67.52-18.45-106-13C1930.33,510.08,1850.6,533.11,1767.9,530Z" />
  </g>
  <g id="shadow_Image" data-name="shadow Image">
    <image id="shadow_Image-2" data-name="shadow Image" width="7656" height="3888" xlink:href="couch1.png"/>
  </g>
</svg>
